Patient4_TMGait_0pt2_02_right_22_EMG.mot
version=1
nRows=33
nColumns=33
inDegrees=no
endheader
time	1LAddLong	2LGlutMax	3LGlutMed	4LIliopsoas	5LSemiMemb	6LBicFemLong	7LRecFem	8LVastMed	9LVastLat	10LGasMed	11LTibAnt	12lTibPost	13LPeroneusLong	14LSol	15LExtDigLong	16LFlexDigLong	17RAddLong	18RGlutMax	19RGlutMed	20RIliopsoas	21RSemiMemb	22RBicFemLong	23RRecFem	24RVastMed	25RVastLat	26RGasMed	27RTibAnt	28RTibPost	29RPeroneusLong	30RSol	31RExtDigLong	32RFlexDigLong
50.07	-0.002136	0.05661	0.026093	0.024414	0.003967	-0.02655	0.070801	0.009003	-0.12573	0.2536	-0.000763	-0.034943	0.020905	-0.016632	0.00351	0.013275	-0.018311	-0.028381	0.078735	0.031433	0.30456	-0.42694	0.29755	0.36301	-0.68726	-0.016327	0.1062	-0.003357	-0.58121	0.035553	-0.006714	-0.009918
50.071	-0.009613	0.077057	0.00946	0.00946	-0.00473	-0.019836	0.059814	0.011292	-0.095062	-0.087128	-0.003052	-0.053101	0.022736	-0.020447	0.00473	0.016327	0.009308	0.11185	0.058289	0.029755	0.13992	-0.26504	-0.093384	0.13229	-0.35706	-0.017395	0.11536	-0.005035	0.23621	0.068054	0.003357	-0.016937
50.072	-0.006866	0.054626	0.029144	0.013885	-0.014343	-0.039215	-0.053253	0.009308	-0.074463	-0.33005	-0.00061	-0.045166	0.019836	0.010529	0.00473	0.011139	-0.014038	0.12558	0.12512	-0.016632	-0.047607	-0.05722	-0.3421	-0.079498	-0.18921	0.006714	0.064545	-0.005035	1.3652	0.012512	0.000763	-0.014038
50.073	-0.005035	0.063324	0.045166	0.002594	-0.004272	-0.055237	-0.22018	0	0.009308	-0.2417	0.000763	-0.03952	0.023651	0.036926	0.004578	-0.001068	0.001221	0.009613	0.41733	-0.097809	-0.029755	-0.054932	-0.28671	-0.23224	-0.1445	0.0177	0.027161	-0.00351	0.72113	0.024414	-0.006256	-0.009308
50.074	0.006866	0.041199	0.057678	0.02243	-0.007782	-0.062561	-0.15274	0.011444	0.11658	-0.091858	-0.00061	-0.0383	0.019531	0.008392	0.010529	0.003815	0.006256	-0.068512	0.35904	-0.080719	-0.026245	-0.10956	-0.089264	-0.34454	0.11414	0.011139	-0.069122	-0.005035	0.26016	0.010071	-0.001373	-0.017395
50.075	0.003204	0.025482	-0.041199	0.011139	-0.005188	-0.066833	-0.027771	0.00946	0.09552	0.048828	0.008087	-0.040741	0.013428	-0.11078	0.018463	0.012665	-0.008698	-0.058289	0.088654	-0.026245	-0.005035	-0.090179	-0.049591	-0.3125	0.42633	0.010376	-0.083313	-0.004425	-0.068359	-0.070343	-0.003204	-0.00946
50.076	-0.005188	0.019379	-0.06958	0.001373	0.005951	-0.075226	0.002289	0.011444	0.15595	0.13245	-0.009918	-0.0383	0.027466	-0.1561	0.015564	0.003204	0.009308	-0.040283	-0.10178	0.096283	0.00412	0.081482	0.050659	-0.23056	0.31113	-0.00412	0.18753	-0.014496	0.095978	-0.074921	-0.002441	-0.012207
50.077	0.000153	0.0354	-0.015259	-0.00824	0.005188	-0.05661	0.025482	0.015259	0.22964	0.018921	0.000305	-0.036316	0.019684	-0.039673	0.003967	0.007477	0.009003	-0.014801	-0.46219	0.15137	0.038757	0.11215	-0.11398	-0.13733	0.3093	-0.030823	0.66803	-0.008087	-0.38956	-0.13351	0	-0.011139
50.078	0	0.036011	0.068817	-0.019684	0.007629	-0.0177	0.023193	0.007782	0.18753	-0.20493	-0.002594	-0.027008	0.014648	0.092773	-0.006714	0.014038	0.027924	-0.14847	-0.42557	0.015259	0.058899	-0.044708	-0.12131	0.000153	0.35996	-0.018921	1.087	-0.006256	-1.5108	-0.17792	-0.00061	-0.00412
50.079	0.00061	0.00885	0.066376	-0.008392	-0.000153	-0.04303	-0.023346	0.020142	0.071564	-0.43655	-0.00351	-0.027618	0.02655	0.067139	0.005188	0.002594	0.027618	-0.41992	-0.30136	-0.18967	-0.023804	-0.14893	-0.18097	0.013123	0.28168	-0.014954	0.57236	-0.00946	-0.56213	-0.17761	0	0.001373
50.08	-0.005798	0.036926	0.044098	-0.024414	-0.00473	-0.052185	-0.12405	0.017853	0.016479	0.1088	0.035858	-0.033112	0.03006	0.027771	-0.001831	0.010529	0.036621	-0.53085	-0.20859	-0.15243	-0.14618	-0.1648	-0.29511	0.040131	-0.026245	-0.014496	-0.10223	-0.005646	1.375	-0.13977	-0.003357	-0.00824
50.081	-0.001221	0.028076	0.010681	-0.001984	-0.000305	-0.08316	-0.07019	0.021057	-0.016327	0.2742	-0.032806	-0.025482	0.020142	0.06546	-0.011139	0.011292	0.027618	-0.47638	-1.0701	-0.079803	-0.28519	-0.12039	-0.084839	0.079956	-0.31708	0.003967	-0.78125	-0.003967	0.84305	-0.22751	-0.003967	-0.007782
50.082	0.006256	0.015564	0	-0.001373	-0.00351	-0.075836	-0.031128	0.020294	-0.075531	0.16769	-0.0383	-0.022125	0.027618	0.05722	0.015411	0.002594	-0.003052	-0.43518	-0.78247	0.012512	-0.039978	-0.023651	0.099945	0.034027	-0.49271	0.00351	-0.45868	-0.000458	-0.34393	-0.28625	-0.002136	-0.006104
50.083	-0.007477	0.028839	0.016785	-0.005798	0.013123	-0.052032	0.091095	0.000153	-0.21591	-0.20935	-0.015259	-0.02182	0.016937	0.050659	0.013123	0.003967	0.020599	-0.25116	0.27802	0.09613	0.17838	0.011139	0.04837	-0.03006	-0.32669	-0.006256	-0.2594	-0.006409	0.26443	-0.18005	-0.006409	-0.012054
50.084	-0.012512	0.008392	0.019073	0.000763	0.003204	-0.076904	0.11322	0.002441	-0.21927	-0.14786	-0.009613	-0.016785	0.021362	0.018005	0.018921	0.015564	0.028076	-0.2681	1.138	0.14542	0.34164	-0.063629	0.14816	-0.065918	-0.084686	-0.006104	-0.086823	-0.002441	0.30456	-0.32105	-0.002289	-0.013885
50.085	-0.001526	0.015564	-0.002441	0.035553	-0.005798	-0.070496	0.08255	0.011597	-0.19501	0.32883	-0.006256	-0.022888	0.022583	-0.029144	0.014343	0.003662	0.005341	-0.26703	0.55389	0.053406	0.14053	0.023346	0.20493	0.016022	-0.067902	0.000153	-0.020599	-0.003052	0.33066	-0.29037	-0.006561	-0.015564
50.086	-0.00824	0.024261	-0.016785	0.03891	0.007324	-0.058746	0.015869	-0.002289	-0.18616	0.71121	0.005341	-0.014191	0.026245	-0.073547	-0.003357	0.015564	0.001831	-0.19287	0.25864	0.1001	0.095367	0.26871	0.298	-0.075378	-0.16037	-0.001221	-0.072021	-0.003967	0.081024	-0.13596	-0.007019	-0.013885
50.087	-0.000916	0.008545	-0.021973	0.021515	-0.00946	-0.054016	-0.039368	0.015106	-0.13199	0.54489	-0.006409	-0.019073	0.028076	-0.067749	-0.005646	0.023651	0.010529	-0.075684	-0.094299	0.13443	0.042725	0.19531	0.1564	-0.012512	-0.097809	-0.001221	-0.52094	-0.004578	0.2272	-0.042877	-0.004578	-0.012817
50.088	-0.010834	0.004578	-0.010223	0.026855	-0.003967	-0.055389	-0.058441	0.013733	-0.076752	0.58533	-0.002747	-0.005188	0.010681	-0.021973	-0.018616	0.00885	-0.023956	-0.032959	-0.17212	0.11292	0.001984	0.054016	0.18906	0.1532	-0.05127	-0.009918	-0.46143	-0.007935	-0.26108	0.083618	-0.003662	-0.010681
50.089	-0.012817	0.008545	-0.019836	0.014954	-0.023499	-0.062561	-0.040894	0.016327	0.019684	0.80841	-0.003662	0.01709	-0.002899	0.009918	-0.027313	-0.002441	-0.002899	0.025635	-0.15182	0.090179	-0.057068	0.015717	0.34576	0.12665	-0.019379	-0.006409	-0.50537	-0.009918	-0.63522	0.22232	-0.004425	-0.0177
50.09	-0.012512	0.021362	-0.015717	0.00473	-0.023651	-0.036774	0.05188	0.02182	0.13702	-0.63644	-0.006256	0.012665	-0.001526	0.046387	-0.027466	-0.010681	0.010529	0.067444	0.24674	0.026855	-0.080261	0.049744	0.15091	0.11459	0.12848	0.005493	0.44403	-0.005035	-0.092926	0.21027	-0.003357	-0.010376
50.091	-0.00946	0.026245	-0.016022	0.011139	0.00824	-0.086823	0.10437	0.014038	0.14191	-0.80521	0.007172	0.014038	-0.008392	0.052185	-0.024567	0.003052	-0.004272	0.067291	0.33402	-0.051575	0.046234	0.10284	0.061035	0.097656	0.055237	0.009308	0.90759	-0.003357	0.34195	0.20737	-0.003662	-0.000305
50.092	-0.005493	0.049286	-0.039368	-0.003052	0.004883	-0.083618	0.10544	0.019226	0.078125	-0.47943	0.002747	0.003204	-0.026093	0.076599	-0.020752	-0.004272	-0.014496	0.045471	0.004272	-0.10864	0.12116	0.033569	-0.097198	-0.001068	-0.052185	-0.009308	1.2668	-0.010071	0.31723	0.17242	-0.005341	-0.009766
50.093	0.001678	0.02121	-0.077972	0.010681	0.023041	-0.015564	0.067139	0.021973	0.049133	-0.30289	0.005798	0.009155	-0.030518	0.057983	-0.009155	0.005798	-0.022888	-0.001068	-0.10956	-0.061646	0.031281	0.019073	-0.47669	-0.26245	0.041504	-0.003662	1.0779	-0.00412	0.14389	-0.011444	-0.004272	-0.007935
50.094	-0.010376	0.007019	-0.049896	0.012665	0.002899	0.039673	0.089111	0.02243	-0.013428	-0.20447	0.000916	0.003662	-0.032501	0.03006	-0.019836	0.004578	-0.005188	0.055389	0.042877	0.001068	-0.087128	0.033722	-0.54703	-0.17395	0.075226	0.002899	-0.10742	-0.00351	0.42938	-0.11871	-0.005188	-0.019073
50.095	-0.005188	0.007172	-0.066376	0.024109	-0.044098	0.064087	0.046692	0.032349	-0.002441	-0.13473	0.014496	0.006714	-0.029755	0.010071	-0.001068	0.004578	0.01709	0.029755	-0.18829	0.095825	-0.096741	0.069275	-0.31448	0.066986	0.033264	0.007324	-0.62714	-0.005035	1.6895	-0.19867	-0.001984	-0.001068
50.096	-0.006104	0.028076	-0.052032	0.023346	-0.070648	0.06485	0.028229	0.012054	0.028534	-0.21744	0.019379	0.01358	-0.016022	-0.010834	0.016479	0.002747	0.019836	0.070648	-0.18539	0.099335	0.2121	0.063782	-0.16174	0.21072	0.02533	0.005035	-0.30273	-0.00412	0.67261	-0.14343	-0.008545	-0.010071
50.097	-0.00824	0.011292	-0.020142	0.023804	-0.065613	0.038452	0.018921	0.014801	0.024719	-0.16327	0.013275	0.008087	-0.019226	0.00351	0.026855	0.001221	0.029755	0.1445	-0.53253	0.020447	0.19028	0.048828	-0.21759	0.080109	0.007019	0	-0.7547	-0.001526	-0.44418	-0.030365	-0.004272	-0.018005
50.098	0.00885	-0.010529	-0.057373	0.006409	-0.03952	0.013428	0.012665	0.011902	0.012665	-0.096741	0.019379	0.009155	-0.04776	0.031281	0.000763	-0.001221	0.05249	0.16617	-0.45776	-0.047302	-0.1889	0.047455	-0.052032	-0.13794	-0.022583	-0.007629	-1.2531	-0.002747	-0.27313	0.16144	-0.001831	-0.000916
50.099	0.003357	0.025635	0.065918	0.020294	0.014954	-0.012512	0.036011	0.019226	0.027008	-0.10742	0.026245	0.007324	-0.019073	0.032196	-0.023804	0.013123	0.069885	0.16663	-0.028839	-0.028076	-0.17334	-0.041962	0.098267	-0.13794	-0.13184	-0.009766	-0.45303	-0.005798	0.18112	0.28809	-0.003967	-0.012817
50.1	0.016632	0.013123	0.091705	-0.003815	0.05127	-0.002747	-0.022583	0.028687	0.095825	-0.083313	0.00473	0.002441	0.04837	0.017853	-0.029297	0.000153	0.070343	0.14938	-0.30533	-0.05188	0.029144	-0.11398	0.14679	-0.23758	-0.14679	-0.003052	0.3038	-0.002289	0.29999	0.17487	-0.005951	-0.012207
50.101	0.015717	0.031738	0.10513	-0.005035	0.10025	0	-0.037231	0.021515	0.18188	-0.046234	-0.00946	0.009766	0.080109	0.04425	-0.013733	0.000763	0.022125	0.14389	0.76981	-0.11826	0.10284	-0.16266	-0.15091	-0.19241	-0.033264	0.001526	0.2269	-0.002747	-0.28671	0.17227	-0.003357	-0.013885
50.102	0.004578	-0.006256	0.095215	-0.011902	0.10056	0.046234	-0.012512	0.016022	0.2179	-0.03891	-0.007782	0.007477	0.093231	0.03418	-0.001221	0.002594	0.001373	0.11658	0.97092	-0.13794	-0.13458	-0.079346	-0.12772	-0.01236	0.12405	-0.001373	-0.20279	-0.008392	-1.1125	0.18387	-0.001984	-0.01236
